
<svg width="39px" height="27px" viewBox="0 0 39 27" version="1.1" xmlns="http://www.w3.org/2000/svg" xmlns:xlink="http://www.w3.org/1999/xlink">
    <g id="Page-1" stroke="none" stroke-width="1" fill="none" fill-rule="evenodd">
        <g id="logo" transform="translate(1.000000, 0.000000)" fill-rule="nonzero" fill="#000000">
            <path d="M32.2,10 C32.1,8.5 31.3,7.2 29.9,6.1 L29.4,5.7 L29,6.2 C28.3,7.3 28,8.7 28.1,9.9 C28.2,10.7 28.5,11.6 29,12.2 C28.6,12.5 27.3,13.1 25.6,13.1 L0.4,13.1 C-0.1,15.8 0.7,26 12.4,26 C21.1,26 28.2,22.1 31.5,13.9 C32.6,13.9 35.4,14.1 36.8,11.4 C36.8,11.4 37.2,10.7 37.2,10.7 L36.7,10.3 C35.8,9.8 33.7,9.6 32.2,10 Z" id="Shape" stroke="#FFFFFF" stroke-width="0.7"></path>
            <rect id="Rectangle-3" x="16.6" y="0" width="3.9" height="3.6"></rect>
            <rect id="Rectangle-3_1_" x="16.6" y="4.3" width="3.9" height="3.6"></rect>
            <rect id="Rectangle-3_2_" x="12" y="4.3" width="3.9" height="3.6"></rect>
            <rect id="Rectangle-3_3_" x="7.4" y="4.3" width="3.9" height="3.6"></rect>
            <rect id="Rectangle-3_4_" x="2.8" y="8.5" width="3.9" height="3.6"></rect>
            <rect id="Rectangle-3_5_" x="7.4" y="8.5" width="3.9" height="3.6"></rect>
            <rect id="Rectangle-3_6_" x="12" y="8.5" width="3.9" height="3.6"></rect>
            <rect id="Rectangle-3_7_" x="16.6" y="8.5" width="3.9" height="3.6"></rect>
            <rect id="Rectangle-3_8_" x="21.2" y="8.5" width="3.9" height="3.6"></rect>
        </g>
    </g>
</svg>